<svg xmlns="http://www.w3.org/2000/svg" xmlns:xlink="http://www.w3.org/1999/xlink" width="100" height="100" viewBox="0 0 100 100" class="finish"><defs><path id="a" d="M-130.52 176.726l69.01-178.2L104.84 27.86 35.83 206.057z"/></defs><clipPath id="b"><use xlink:href="#a" overflow="visible"/></clipPath><g clip-path="url(#b)"><path fill="#FFF" d="M.554 199.745v.006l.004-.003-.004-.002m7.65-12.535l-5.208-.918-4.464 6.85-1.344-4.404 3.2 10.467.295-.45 7.52-11.545M-59.98.095l1.852 6.06L80.248 60.458l1.01-1.548.833.33-1.004 1.546 2.94 1.153-1.76 2.7 1.678.658-.505.774-1.677-.66-25.11 38.533-8.5 21.952 43.257-66.39L-59.98.096"/><defs><path id="c" d="M.555 199.75l.547-.837 90.98-139.627L-60.744-.688l3.368 11.017 136.03 53.378-81.466 125.025L.555 199.75"/></defs><clipPath id="d"><use xlink:href="#c" overflow="visible"/></clipPath><path clip-path="url(#d)" fill="#CCC" d="M2.996 186.292l-3.304-.583-2.08 3.193-.424-.166 1.346 4.402 4.462-6.848M-58.13 6.152l1.18 3.855 136.275 53.48-17.263 26.497-5.407 13.962 25.11-38.533-1.684-.66.505-.775 1.683.662 1.76-2.698-2.94-1.153-1.002 1.542-.843-.33 1.006-1.542L-58.13 6.153"/><path d="M-.308 185.71l-.947-.168-1.976 3.03.418.165.423.166 2.082-3.194m9.453 1.666l-.94-.166-7.52 11.543-.297.45-.248.38.414.162.004.002.424.166.535-.832 7.628-11.704M-61.51-1.474l3.708 12.115 135.79 53.29L63.6 86.013l-1.538 3.973 17.264-26.497-136.277-53.48-1.18-3.854-1.852-6.06L91.41 59.51l-43.258 66.39-1.542 3.983 46.146-70.815L-61.51-1.473"/><path d="M81.257 58.912l-1.01 1.547L79.243 62l.843.33 1-1.542 1.006-1.547-.833-.328M80.585 63.978l-.504.774 1.684.66 1.675.66.504-.773-1.676-.66-1.683-.662"/><path fill="#CCC" d="M52.567 79.83c-3.323-.587-5.086-3.454-3.94-6.41 1.144-2.956 4.76-4.874 8.084-4.288 3.323.586 5.088 3.452 3.942 6.41-1.144 2.955-4.76 4.873-8.085 4.287M70.26 66.24L-67.622 41.93l-47.502 122.655 137.882 24.313L70.26 66.24"/><path d="M-67.622 41.93L70.26 66.24 22.758 188.898l-137.882-24.313L-67.622 41.93M71.045 65.5L-67.77 41.024c-.117-.02-.26.002-.37.062-.116.066-.206.16-.25.272l.46.08-.46-.08-47.817 123.472c-.043.11-.033.224.02.32.063.09.16.154.278.175l114.655 20.217.947.167 3.304.582 5.208.918.94.166 13.762 2.426c.124.022.26-.002.37-.06.123-.066.214-.16.257-.272l23.077-59.59 1.542-3.98 8.502-21.953 5.407-13.962 1.54-3.973L71.35 66c.043-.113.033-.226-.027-.323-.054-.088-.154-.154-.278-.175"/><path fill="#C8C8C8" d="M53.523 77.362c-1.79-.316-2.74-1.86-2.124-3.453s2.564-2.628 4.355-2.313c1.782.314 2.74 1.86 2.123 3.454s-2.572 2.626-4.355 2.312m2.87-7.41c-1.407-.247-2.877.032-4.11.693-1.244.66-2.247 1.686-2.732 2.938-.483 1.252-.353 2.48.253 3.463.598.984 1.678 1.713 3.085 1.96s2.868-.03 4.11-.69c1.243-.66 2.246-1.686 2.73-2.938.485-1.252.355-2.48-.25-3.464s-1.677-1.713-3.085-1.96"/><path d="M53.842 76.54c-1.274-.225-1.957-1.334-1.52-2.468.44-1.134 1.838-1.87 3.114-1.65 1.27.23 1.948 1.332 1.518 2.467-.447 1.13-1.84 1.875-3.112 1.65m1.914-4.942c-1.79-.315-3.74.72-4.356 2.312s.334 3.137 2.124 3.453c1.782.313 3.738-.718 4.355-2.31s-.342-3.14-2.124-3.455m-2.87 7.41c-1.406-.25-2.486-.978-3.084-1.962-.605-.984-.736-2.21-.252-3.463.485-1.252 1.488-2.278 2.73-2.938 1.235-.66 2.705-.94 4.112-.692 1.408.248 2.478.976 3.084 1.96s.736 2.213.25 3.465c-.483 1.252-1.486 2.278-2.73 2.938-1.24.66-2.702.94-4.11.69m3.825-9.874c-3.322-.586-6.94 1.332-8.084 4.29-1.145 2.954.618 5.82 3.94 6.407s6.94-1.333 8.086-4.29c1.146-2.956-.62-5.822-3.94-6.408"/></g><path fill="#E6E6E6" d="M64.088 50.415c.09.007.18.005.27 0l-4.794 8.57-4.983-9.173c.09.01.18.018.266.022l9.242.58z"/><path fill="none" stroke="#000" stroke-width="1.001" stroke-miterlimit="10" d="M64.088 50.415c.09.007.18.005.27 0l-4.794 8.57-4.983-9.173c.09.01.18.018.266.022l9.242.58z"/><path fill="#C8C8C8" d="M56.725 49.96l5.618.345-2.757 4.925"/><g><path fill="#FFD000" d="M30.794 15.503l21.618 32.54c.778 1.174 1.237 1.863 1.237 1.863l11.956.734-1.228-2.227L42.514 8.755c-1.874-3.397-6.177-4.59-9.532-2.64-3.295 1.917-4.296 6.212-2.188 9.388z"/><path fill="none" stroke="#000" stroke-miterlimit="10" d="M30.794 15.503l21.618 32.54c.778 1.174 1.237 1.863 1.237 1.863l11.956.734-1.228-2.227L42.514 8.755c-1.874-3.397-6.177-4.59-9.532-2.64-3.295 1.917-4.296 6.212-2.188 9.388z"/><circle opacity=".3" cx="36.425" cy="11.757" r="2.669"/><circle opacity=".3" cx="51.887" cy="36.3" r="1.893"/></g></svg>
