<svg xmlns="http://www.w3.org/2000/svg" width="100" height="100" viewBox="0 0 100 100" class="finish"><g clip-rule="evenodd" stroke="#000"><path fill-rule="evenodd" fill="#FFF" stroke-linecap="round" stroke-linejoin="round" d="M1 7.11s-6.23-.24-7 0-7.73 149.3-7.73 149.3l54.03-1.29L96 22.11l-95-15zm74.206 27.508c-2.374-.22-3.75-1.888-2.922-3.752.845-1.917 3.592-3.128 5.974-2.694 2.237.403 3.25 2.115 2.397 3.82-.83 1.66-3.212 2.823-5.45 2.626z"/><path fill-rule="evenodd" fill="#FFF" stroke-linecap="round" stroke-linejoin="round" d="M-5 5.11l-12 19L87.29 43.87 96 22.11l-101-17z"/><path fill-rule="evenodd" fill="#FFF" stroke-linecap="round" stroke-linejoin="round" d="M87.29 43.87L62 39.078 15.26 150C22.99 170.47 67 160.94 67 160.94s-24.83-6.4-25.11-6.99l45.4-110.08z"/><path fill-rule="evenodd" fill="#CCC" stroke-linecap="square" stroke-linejoin="round" d="M-33 42l71-13 76 124-122 32z"/><path opacity=".05" fill="none" d="M-18.5 61.116l42.15-8.22 49 88.746L-7 159.988z"/></g></svg>
