<svg xmlns="http://www.w3.org/2000/svg" xmlns:xlink="http://www.w3.org/1999/xlink" width="100" height="100" viewBox="0 0 100 100" class="finish"><defs><path id="a" d="M-130.52 176.73L-61.507-1.47 104.84 27.864 35.83 206.067z"/></defs><clipPath id="b"><use xlink:href="#a" overflow="visible"/></clipPath><g clip-path="url(#b)"><path fill="#FFF" d="M8.207 187.212L3 186.294l-4.466 6.85-1.347-4.4L.39 199.208l.296-.453 7.52-11.543M-59.977.095l1.852 6.05L80.25 60.458l1.01-1.547.834.33-1.005 1.546 2.938 1.153-1.76 2.7 1.68.656-.506.773-1.676-.66-25.133 38.568-8.5 21.952 43.28-66.426L-59.978.094"/><defs><path id="c" d="M.557 199.753l.545-.83 90.984-139.64L-60.742-.686l3.37 11.01L78.654 63.706-2.813 188.743l3.37 11.01"/></defs><clipPath id="d"><use xlink:href="#c" overflow="visible"/></clipPath><path clip-path="url(#d)" fill="#CCC" d="M3 186.294l-3.306-.583-2.08 3.194-.425-.166-.003.005 1.347 4.4L3 186.293M-58.127 6.147l1.18 3.855L79.328 63.486 62.042 90.017l-5.408 13.963 25.133-38.568-1.683-.66.5-.768 1.684.657 1.76-2.7-2.938-1.153-1.002 1.543-.84-.33 1.004-1.542L-58.126 6.146"/><path d="M-.306 185.71l-.947-.166-1.975 3.03.417.164.424.166 2.08-3.193m9.453 1.668l-.94-.166-7.52 11.542-.297.453-.25.385.84.33.54-.84 7.627-11.704M-61.507-1.472L-57.8 10.64 77.99 63.93 63.58 86.045l-1.538 3.972 17.286-26.53L-56.946 10l-1.18-3.854-1.852-6.05 151.39 59.41-43.28 66.426-1.542 3.983 46.17-70.853L-61.508-1.472"/><path d="M81.26 58.91l-1.01 1.547-1.004 1.54.84.332 1.003-1.544 1.004-1.547-.833-.33M80.585 63.983l-.5.768 1.682.66 1.675.66.505-.773-1.68-.656-1.682-.657"/><path fill="#CCC" d="M70.26 66.247L-67.62 41.93l-47.5 122.653L22.76 188.9l47.5-122.653"/><path d="M-115.12 164.583l47.5-122.652L70.26 66.248 22.76 188.9l-137.88-24.317M71.045 65.506l-138.812-24.48c-.117-.02-.257-.005-.37.062-.113.06-.203.154-.246.266l-47.82 123.482c-.044.11-.042.223.02.313.053.095.154.153.28.176l114.65 20.22.948.167 3.305.583 5.207.918.94.166 13.76 2.427c.126.022.257.005.37-.062.12-.06.203-.154.246-.267l-.458-.08.16-.415-.16.414.458.08 23.066-59.56 1.542-3.984 8.5-21.952 5.41-13.962 1.537-3.972 7.764-20.05c.043-.11.04-.223-.02-.313-.053-.096-.154-.155-.28-.177"/></g><path opacity=".2" d="M155.433 32.183L-54.644-4.86l-10.222 26.397L67.294 44.84l-2.467 6.375 24.215 4.265 2.467-6.37 53.7 9.47"/><defs><path id="e" d="M-67.976 15.77l7.428-19.183 210.764 37.17-7.428 19.18z"/></defs><clipPath id="f"><use xlink:href="#e" overflow="visible"/></clipPath><g clip-path="url(#f)"><path fill="#828282" d="M148.973 34.416L-59.94-2.427l-6.792 17.536L142.182 51.95l6.79-17.536"/><path d="M-66.732 15.11l6.79-17.537 208.915 36.843-6.79 17.536L-66.733 15.11m216.948 18.647L-60.548-3.413l-7.428 19.182 210.764 37.17 7.428-19.183"/></g><defs><path id="g" d="M-67.976 9.685l7.428-19.182 210.764 37.17-7.428 19.18z"/></defs><clipPath id="hz"><use xlink:href="#g" overflow="visible"/></clipPath><g clip-path="url(#hz)"><path fill="#C8C8C8" d="M27.92 18.23c.867.153 1.104-.39 1.345-1.013l1.042-2.69 3.23.57-1.146 2.964c-.895 2.312-2.934 3.076-5.425 2.638-2.49-.44-3.706-1.778-2.812-4.09l1.148-2.963 3.232.57-1.042 2.688c-.24.623-.427 1.176.43 1.327m-14.898-.126s5.707-4.582 6.077-4.825l-3.172-.568.927-2.393 8.278 1.46-5.98 4.785 3.477.62-.946 2.446-8.662-1.526m12.426-4.884l.502-1.297 3.24.572-.503 1.296-3.24-.57m5.023.885l.502-1.297 3.24.57-.5 1.298-3.242-.57m9.47 4.702l1.593-4.137 3.09.546-3.066 7.92-3.09-.545-1.184-4.457-1.54 3.98-3.107-.55 3.067-7.92 3.106.55 1.13 4.615m4.75-.343l1.174-3.03 5.014.885 2.84 4.727-5.907 3.193-5.013-.885 1.168-3.015 3.647.644 1.292-.786-.565-1.09-3.65-.643m104.283 9.867L-59.94-8.51l-6.792 17.535 208.914 36.843 6.79-17.536"/><path d="M-66.732 9.025l6.79-17.536L148.974 28.33l-6.79 17.536L-66.733 9.025m216.948 18.648L-60.548-9.497l-7.428 19.182 210.764 37.17 7.428-19.182"/><path fill="#4B5860" d="M44.624 15.216l-3.09-.545-1.594 4.138-1.13-4.617-3.107-.546-3.067 7.92 3.107.547 1.54-3.977 1.183 4.458 3.09.546 3.068-7.92M25.134 11.78l-8.278-1.46-.927 2.392 3.17.567c-.37.242-6.077 4.824-6.077 4.824l8.66 1.527.947-2.444-3.478-.62 5.982-4.787M33.538 15.098l-3.23-.57-1.043 2.69c-.24.622-.478 1.166-1.345 1.013-.857-.15-.67-.703-.43-1.325l1.043-2.69-3.23-.568-1.15 2.963c-.894 2.312.323 3.65 2.813 4.09 2.49.438 4.53-.326 5.426-2.637l1.146-2.965M29.19 12.495l-3.24-.572-.502 1.297 3.24.57.502-1.295M34.213 13.38l-3.24-.57-.503 1.295 3.24.572.503-1.297"/><path fill="#E20031" d="M50.878 16.32l-5.014-.885-1.174 3.03 3.65.643.564 1.09-1.292.785-3.647-.643-1.168 3.014 5.014.885 5.908-3.194-2.84-4.727"/></g><path opacity=".2" d="M74.81 63.056c1.4-.375 2.975.096 3.513 1.048.542.955-.156 2.033-1.556 2.41-1.403.375-2.977-.094-3.518-1.05-.54-.954.156-2.032 1.56-2.408z"/><path fill="#C8C8C8" d="M75.812 60.895l-3.606-8.223 3.606-3.608 3.605 3.608"/><path fill="#E6E6E6" d="M78.54 51.798l-3.355 7.665.627 1.432 3.605-8.223"/><path fill="#E6E6E6" d="M73.082 51.798l3.36 7.665-.63 1.432-3.605-8.223"/><path fill="none" stroke="#000" d="M79.417 52.672l-3.605-3.608-3.606 3.608 3.606 8.223.63-1.432-.002-.004z"/><g><path fill="#F00" d="M86.087 63.125c-.138 0-.276-.012-.412-.036-.63-.112-1.155-.473-1.447-.99-.278-.495-.316-1.094-.104-1.644.394-1.014 1.593-1.674 2.727-1.48.625.11 1.15.47 1.44.987.28.494.318 1.092.106 1.64-.347.896-1.296 1.522-2.31 1.522z"/><path d="M86.678 59.963c-.666-.117-1.395.27-1.62.854-.23.593.125 1.17.79 1.287.658.116 1.387-.27 1.616-.862.226-.586-.128-1.163-.786-1.28"/><linearGradient id="i" gradientUnits="userSpaceOnUse" x1="86.26" y1="63.125" x2="86.26" y2="46.797"><stop offset=".129" stop-color="#F00" stop-opacity=".6"/><stop offset="1" stop-color="#FFF" stop-opacity="0"/></linearGradient><path fill="url(#i)" d="M88.532 46.797h-4.545v14.237h.017c-.027.37.04.74.224 1.065.292.517.818.877 1.447.988.136.024.274.036.412.036 1.013 0 1.962-.626 2.31-1.522.072-.186.104-.377.12-.568h.016V46.797z"/></g><g stroke="#000" stroke-width=".425"><path fill="#828282" stroke-miterlimit="10" d="M89.042 21.367l-24.215-4.265v28.524l24.215 4.27z"/><path fill="#646464" d="M89.042 49.895l2.484-6.42V14.95l-2.484 6.417z"/><path fill="#C8C8C8" d="M64.827 17.102l2.485-6.42 24.214 4.27-2.484 6.415z"/></g><path fill="none" stroke="#000" d="M67.312 10.682l-2.485 6.42v28.524l24.215 4.27 2.484-6.42V14.95z"/><path fill="#969696" d="M81.14 50.7h.007V29.984H70.472V50.7h.01c-.003.444.1.896.348 1.334 1.063 1.876 4.15 2.797 6.906 2.057 2.104-.56 3.387-1.934 3.404-3.39z"/><path fill="none" stroke="#000" d="M81.146 30.057v-.072h-.002c.005-.445-.106-.898-.355-1.338-1.058-1.87-4.148-2.793-6.894-2.057-2.113.564-3.405 1.94-3.42 3.395h-.005V50.7h.012c-.004.444.1.896.347 1.334 1.062 1.876 4.15 2.797 6.905 2.057 2.104-.56 3.388-1.934 3.404-3.39h.006V30.077v-.02z"/><path fill="#C8C8C8" stroke="#000" stroke-width=".567" d="M73.896 26.59c2.745-.736 5.836.188 6.893 2.057 1.062 1.877-.308 3.992-3.055 4.73-2.755.738-5.844-.184-6.906-2.06-1.06-1.872.31-3.99 3.066-4.727z"/></svg>
