<svg xmlns="http://www.w3.org/2000/svg" width="100" height="100" viewBox="0 0 100 100" class="finish"><g clip-rule="evenodd" stroke="#000"><path fill-rule="evenodd" fill="#FFF" stroke-linecap="round" stroke-linejoin="round" d="M1 7.11s-6.23-.24-7 0-7.73 149.3-7.73 149.3l54.03-1.29L96 22.11l-95-15zm75.958 28.03c-2.945 0-5.332-2.043-5.332-4.563 0-2.518 2.387-4.56 5.332-4.56s5.332 2.042 5.332 4.56c0 2.52-2.387 4.562-5.332 4.562z"/><path fill-rule="evenodd" fill="#FFF" stroke-linecap="round" stroke-linejoin="round" d="M-5 5.11l-12 19L87.29 43.87 96 22.11l-101-17zm81.958 30.03c-2.945 0-5.332-2.043-5.332-4.563 0-2.518 2.387-4.56 5.332-4.56s5.332 2.042 5.332 4.56c0 2.52-2.387 4.562-5.332 4.562z"/><path fill-rule="evenodd" fill="#FFF" stroke-linecap="round" stroke-linejoin="round" d="M87.29 43.87L62 39.08 15.26 150C22.99 170.47 67 160.94 67 160.94s-24.83-6.4-25.11-6.99l45.4-110.08z"/><path fill-rule="evenodd" fill="#C8C8C8" stroke-linecap="round" stroke-linejoin="round" d="M76.958 23.467c-4.347 0-7.883 3.19-7.883 7.11 0 3.922 3.536 7.112 7.883 7.112s7.883-3.19 7.883-7.113c0-3.92-3.535-7.11-7.882-7.11zm0 11.672c-2.945 0-5.332-2.043-5.332-4.563 0-2.518 2.387-4.56 5.332-4.56s5.332 2.042 5.332 4.56c0 2.52-2.387 4.562-5.332 4.562z"/><path fill-rule="evenodd" fill="#CCC" stroke-linecap="square" stroke-linejoin="round" d="M38 29l-71 13 25 143 122-32L38 29zm-6.667 18.89c-2.945 0-5.332-2.043-5.332-4.563 0-2.518 2.388-4.56 5.333-4.56s5.332 2.042 5.332 4.56c0 2.52-2.387 4.562-5.332 4.562z"/><path opacity=".05" fill="none" d="M-18.5 61.115l42.15-8.22 49 88.746L-7 159.988z"/><path fill-rule="evenodd" fill="#C8C8C8" stroke-linecap="round" stroke-linejoin="round" d="M31.333 36.217c-4.347 0-7.883 3.19-7.883 7.11 0 3.922 3.536 7.112 7.883 7.112s7.883-3.19 7.883-7.113c0-3.92-3.536-7.11-7.883-7.11zm0 11.672c-2.945 0-5.332-2.043-5.332-4.563 0-2.518 2.388-4.56 5.333-4.56s5.332 2.042 5.332 4.56c0 2.52-2.387 4.562-5.332 4.562z"/></g></svg>
