<svg xmlns="http://www.w3.org/2000/svg" xmlns:xlink="http://www.w3.org/1999/xlink" width="100" height="100" viewBox="0 0 100 100" class="finish"><defs><path id="shapea" d="M-91.858 154.68l48.138-124.3L96.02 55.02l-48.138 124.3z"/></defs><clipPath id="shapeb"><use xlink:href="#shapea" overflow="visible"/></clipPath><g clip-path="url(#shapeb)"><path fill="#FFF" d="M7.25 83.965c-.657-.116-1.012-.693-.785-1.278.23-.594.957-.98 1.615-.863.666.117 1.02.694.792 1.288-.226.584-.955.97-1.62.853m59.89 10.45c-.666-.118-1.014-.693-.783-1.287.226-.585.945-.973 1.61-.855.668.118 1.014.693.787 1.278-.23.594-.95.982-1.615.864m-57.11 15.265l-3.66-15.59 14.495-12.386 18.157 3.2 1.805 7.698 2.58.832.704 12.86-12.833 8.483-9.228-2.98-12.02-2.118M36.475 79.2c-.658-.116-1.016-.686-.786-1.278s.958-.98 1.615-.862c.666.117 1.02.694.792 1.287-.23.592-.955.97-1.62.853M6.034 57.854c-.665-.117-1.012-.693-.785-1.278.23-.594.95-.98 1.615-.862s1.013.69.783 1.285c-.226.584-.946.972-1.612.854m47.056-1.51c-.666-.116-1.02-.693-.794-1.278.23-.593.957-.98 1.623-.86.66.115 1.015.692.785 1.284-.226.585-.955.97-1.613.855m-4.628-3.19l-4.197 3.586 3.53.112L27.893 79.42l-2.844-6.253-8.98 7.675L7.88 46l40.586 7.155m-2.312 18.04c.146-.547.323-1.096.536-1.646 3.34-8.624 13.944-14.25 23.64-12.54C80.02 58.72 85.19 67.127 81.85 75.75c-2.658 6.862-9.916 11.826-17.656 12.706-3.26 1.486-6.984 2.078-10.56 1.448-7.91-1.396-12.123-8.256-9.397-15.294.47-1.217 1.12-2.362 1.912-3.415m48.625-15.517l-137.89-24.314-47.502 122.656 137.89 24.314L94.778 55.678"/><path d="M13.802 51.593l5.136 21.84-2.637-11.23-2.498-10.61m-56.915-20.23L94.777 55.68 47.275 178.335l-137.89-24.314 47.502-122.656M95.562 54.938L-43.253 30.462c-.125-.022-.26 0-.37.06-.124.066-.214.162-.254.265l.467.082-.467-.083-47.82 123.48c-.043.11-.034.223.03.312.05.095.15.16.275.183L47.422 179.24c.117.02.25-.004.375-.068.11-.06.2-.154.244-.266l47.82-123.48c.04-.102.032-.215-.02-.31-.062-.093-.16-.157-.278-.178"/><path fill="#CCC" d="M70.327 57.01c-9.694-1.71-20.3 3.916-23.64 12.54-.212.55-.39 1.1-.535 1.645 1.567-2.084 3.695-3.81 6.116-5.032 3.872-4.697 10.646-7.382 16.943-6.27 7.913 1.394 12.136 8.25 9.41 15.287-1.407 3.634-4.394 6.612-8.043 8.453-1.675 2.032-3.895 3.688-6.382 4.823 7.74-.88 14.998-5.844 17.656-12.707 3.342-8.624-1.83-17.03-11.523-18.74"/><path d="M69.212 59.892c-6.298-1.11-13.07 1.574-16.943 6.27.632-.32 1.284-.604 1.95-.853 3.722-3.592 9.376-5.53 14.673-4.595 7.404 1.306 11.343 7.722 8.796 14.3-1.108 2.86-3.263 5.288-5.952 7.012-.35.56-.737 1.094-1.16 1.606 3.65-1.84 6.637-4.82 8.044-8.453 2.725-7.038-1.498-13.894-9.41-15.288"/><path fill="#CCC" d="M63.203 65.204c-7.396-1.304-15.49 2.99-18.04 9.568-2.55 6.587 1.397 13.005 8.793 14.31 7.396 1.304 15.492-2.99 18.043-9.577 2.547-6.578-1.4-12.996-8.797-14.3"/><path d="M53.956 89.082c-7.396-1.305-11.344-7.723-8.792-14.31 2.548-6.578 10.644-10.872 18.04-9.568 7.395 1.305 11.343 7.723 8.795 14.3-2.552 6.588-10.647 10.882-18.044 9.578m9.566-24.7c-3.123-.55-6.36-.17-9.302.927-.667.248-1.32.533-1.952.853-2.42 1.224-4.55 2.948-6.116 5.032-.792 1.053-1.44 2.197-1.913 3.415-2.727 7.038 1.485 13.898 9.397 15.294 3.574.63 7.3.038 10.56-1.448 2.486-1.135 4.706-2.79 6.38-4.823.423-.513.812-1.048 1.16-1.606.47-.75.867-1.537 1.187-2.36 2.722-7.03-1.49-13.89-9.402-15.286"/><path fill="#CCC" d="M48.464 53.155L7.88 46l8.188 34.842 8.98-7.675-1.262-2.776L18.3 75.08 12.376 49.87l29.367 5.178-1.823 1.557 4.347.136 4.197-3.585"/><path d="M41.743 55.048L12.376 49.87 18.3 75.078l5.486-4.687-.36-.793-4.488 3.836-5.136-21.84-.145-.617 26.16 4.612-1.146.98 1.25.037 1.823-1.557"/><path fill="#CCC" d="M45.96 57.644l-27.258-.857 9.527 20.96 17.73-20.103"/><path d="M28.23 77.746l-9.527-20.96 27.258.857-17.73 20.103m19.568-20.893l-3.53-.11-4.348-.137-1.25-.038-21.474-.67 6.23 13.7.36.793 1.262 2.777 2.844 6.253 19.906-22.567"/><path fill="#CCC" d="M39.024 84.905l-18.157-3.2L6.372 94.09l3.66 15.59 12.02 2.118-4.318-1.395-.135-2.47-4.584-.807-2.904-12.377 11.505-9.835 14.418 2.54.913 3.898 3.88 1.25-1.804-7.698"/><path d="M36.035 87.456l-14.418-2.54-11.505 9.833 2.904 12.376 4.583.808-.05-.888-3.683-.65L11.18 94.94 21.83 85.83l13.35 2.356.66 2.81 1.106.357-.913-3.897"/><path fill="#CCC" d="M29.917 90.02l-11.885 7.85.658 11.902 12.543 4.048 11.878-7.853-.657-11.902-12.536-4.046"/><path d="M31.233 113.82l-12.543-4.048-.658-11.9 11.885-7.854 12.536 4.047.658 11.9-11.877 7.855m-1.375-24.754L17.025 97.55l.523 9.495.05.888.136 2.47 4.317 1.395 9.23 2.98 12.833-8.484-.705-12.86-2.58-.83-3.88-1.25-1.107-.358-5.982-1.93M67.97 92.272c-.665-.117-1.385.27-1.61.855-.23.594.116 1.17.782 1.286.666.118 1.385-.27 1.615-.863.226-.584-.12-1.16-.786-1.278M6.865 55.714c-.666-.117-1.386.27-1.615.862-.227.585.12 1.16.786 1.278s1.386-.27 1.612-.855c.23-.595-.117-1.17-.783-1.286M8.08 81.823c-.658-.116-1.386.27-1.615.863-.227.585.128 1.162.786 1.278.667.117 1.396-.27 1.622-.854.23-.592-.126-1.17-.792-1.287M37.303 77.06c-.657-.116-1.386.27-1.615.862s.128 1.162.786 1.278c.666.117 1.392-.26 1.62-.854.23-.592-.125-1.17-.79-1.286M53.92 54.204c-.665-.117-1.393.27-1.622.86-.227.586.128 1.163.794 1.28.658.116 1.387-.27 1.613-.855.23-.593-.126-1.17-.784-1.286"/></g><path opacity=".2" d="M155.433 32.183L-54.644-4.86l-10.222 26.397L67.294 44.84l-2.467 6.375 24.215 4.265 2.467-6.37 53.7 9.47"/><defs><path id="shapec" d="M-67.978 15.77l7.428-19.18 210.768 37.165-7.428 19.18z"/></defs><clipPath id="shaped"><use xlink:href="#shapec" overflow="visible"/></clipPath><g clip-path="url(#shaped)"><path fill="#828282" d="M148.975 34.414L-59.943-2.426l-6.79 17.537 208.917 36.84 6.79-17.536"/><path d="M-66.734 15.11l6.79-17.535 208.92 36.84-6.792 17.535-208.918-36.84m216.952 18.645L-60.55-3.41l-7.428 19.18L142.79 52.936l7.428-19.18"/></g><path fill="#F00" d="M86.087 63.125c-.138 0-.276-.012-.412-.036-.63-.112-1.155-.473-1.447-.99-.278-.495-.316-1.094-.104-1.644.394-1.014 1.593-1.674 2.727-1.48.625.11 1.15.47 1.44.987.28.494.318 1.092.106 1.64-.347.896-1.296 1.522-2.31 1.522z"/><path d="M86.678 59.963c-.666-.117-1.395.27-1.62.854-.23.593.125 1.17.79 1.287.658.116 1.387-.27 1.616-.862.226-.586-.128-1.163-.786-1.28"/><linearGradient id="shapee" gradientUnits="userSpaceOnUse" x1="86.26" y1="63.125" x2="86.26" y2="46.797"><stop offset=".129" stop-color="#F00" stop-opacity=".6"/><stop offset="1" stop-color="#FFF" stop-opacity="0"/></linearGradient><path fill="url(#shapee)" d="M88.532 46.797h-4.545v14.237h.017c-.027.37.04.74.224 1.065.292.517.818.877 1.447.988.136.024.274.036.412.036 1.013 0 1.962-.626 2.31-1.522.072-.186.104-.377.12-.568h.016V46.797z"/><defs><path id="shapef" d="M-67.978 9.687l7.428-19.18L150.218 27.67l-7.428 19.18z"/></defs><clipPath id="shapeg"><use xlink:href="#shapef" overflow="visible"/></clipPath><g clip-path="url(#shapeg)"><path fill="#C8C8C8" d="M27.92 18.23c.867.153 1.104-.39 1.345-1.013l1.04-2.69 3.233.57-1.148 2.964c-.895 2.313-2.935 3.077-5.425 2.638s-3.706-1.777-2.812-4.09l1.148-2.963 3.232.57-1.042 2.69c-.24.622-.427 1.175.43 1.326m-14.898-.126s5.706-4.582 6.076-4.824l-3.17-.566.926-2.394 8.28 1.46-5.982 4.785 3.478.622-.946 2.444-8.662-1.526m12.425-4.884l.503-1.296 3.24.57-.503 1.298-3.24-.572m5.023.886l.502-1.297 3.24.57-.502 1.296-3.24-.57m9.47 4.702l1.592-4.137 3.092.546-3.067 7.92-3.09-.545-1.184-4.457-1.54 3.98-3.107-.55 3.067-7.92 3.106.55 1.13 4.615m4.75-.343l1.174-3.03 5.014.885 2.84 4.727-5.906 3.193-5.015-.885 1.168-3.015 3.647.644 1.292-.786-.565-1.09-3.65-.643m104.285 9.865L-59.943-8.51l-6.79 17.537 208.917 36.84 6.79-17.537"/><path d="M-66.734 9.027l6.79-17.536 208.92 36.84-6.792 17.536-208.918-36.84m216.952 18.645L-60.55-9.492l-7.428 19.18L142.79 46.85l7.428-19.18"/><path fill="#4B5860" d="M44.624 15.216l-3.092-.545-1.592 4.138-1.13-4.617-3.107-.546-3.067 7.92 3.107.547 1.54-3.977 1.183 4.458 3.09.546 3.068-7.92M25.134 11.78l-8.28-1.46-.926 2.394 3.17.566c-.37.242-6.075 4.824-6.075 4.824l8.66 1.527.947-2.443-3.478-.622 5.982-4.785M33.538 15.098l-3.232-.57-1.04 2.69c-.242.622-.48 1.166-1.346 1.014-.857-.15-.67-.704-.43-1.326l1.043-2.69-3.23-.57-1.15 2.965c-.894 2.313.322 3.65 2.813 4.09s4.53-.325 5.425-2.637l1.148-2.965M29.19 12.495l-3.24-.57-.503 1.295 3.24.572.502-1.297M34.213 13.38l-3.24-.57-.503 1.296 3.24.57.503-1.295"/><path fill="#E20031" d="M50.878 16.32l-5.014-.885-1.174 3.03 3.65.643.564 1.09-1.292.785-3.647-.643-1.168 3.014 5.015.885 5.907-3.194-2.842-4.727"/></g><path opacity=".2" d="M74.81 63.056c1.4-.375 2.975.096 3.513 1.048.542.955-.156 2.033-1.556 2.41-1.403.375-2.977-.094-3.518-1.05-.54-.954.156-2.032 1.56-2.408z"/><g><path fill="#C8C8C8" d="M75.812 60.895l-3.606-8.223 3.606-3.608 3.605 3.608"/><path fill="#E6E6E6" d="M78.54 51.798l-3.355 7.665.627 1.432 3.605-8.223"/><path fill="#E6E6E6" d="M73.082 51.798l3.36 7.665-.63 1.432-3.605-8.223"/><path fill="none" stroke="#000" d="M79.417 52.672l-3.605-3.608-3.606 3.608 3.606 8.223.63-1.432-.002-.004z"/></g><g stroke="#000" stroke-width=".425"><path fill="#828282" stroke-miterlimit="10" d="M89.042 21.367l-24.215-4.265v28.524l24.215 4.27z"/><path fill="#646464" d="M89.042 49.895l2.484-6.42V14.95l-2.484 6.417z"/><path fill="#C8C8C8" d="M64.827 17.102l2.485-6.42 24.214 4.27-2.484 6.415z"/></g><path fill="none" stroke="#000" d="M67.312 10.682l-2.485 6.42v28.524l24.215 4.27 2.484-6.42V14.95z"/><path fill="#969696" d="M81.14 50.7h.007V29.984H70.472V50.7h.01c-.003.444.1.896.348 1.334 1.063 1.876 4.15 2.797 6.906 2.057 2.104-.56 3.387-1.934 3.404-3.39z"/><path fill="none" stroke="#000" d="M81.146 30.057v-.072h-.002c.005-.445-.106-.898-.355-1.338-1.058-1.87-4.148-2.793-6.894-2.057-2.113.564-3.405 1.94-3.42 3.395h-.005V50.7h.012c-.004.444.1.896.347 1.334 1.062 1.876 4.15 2.797 6.905 2.057 2.104-.56 3.388-1.934 3.404-3.39h.006V30.077v-.02z"/><path fill="#C8C8C8" stroke="#000" stroke-width=".567" d="M73.896 26.59c2.745-.736 5.836.188 6.893 2.057 1.062 1.877-.308 3.992-3.055 4.73-2.755.738-5.844-.184-6.906-2.06-1.06-1.872.31-3.99 3.066-4.727z"/></svg>
