<svg xmlns="http://www.w3.org/2000/svg" width="100" height="100" viewBox="0 0 100 100" class="finish"><path fill-rule="evenodd" clip-rule="evenodd" fill="#CCC" stroke="#000" d="M-30.866-16.948l122.303 42.59-68.21 169.114-61.998-75.06z"/><path fill-rule="evenodd" clip-rule="evenodd" fill="#E6E6E6" stroke="#000" stroke-miterlimit="2" d="M91.597 25.357v6.56L43.953 150.044l-1.55-2.717z"/><path opacity=".6" fill="#FFF" d="M23.6 49.36c11.382-.467 33.058 7.558 40.935 21.01l-32.3-61.783h-.002C38.935 21.93 23.6 49.36 23.6 49.36z"/><path opacity=".25" fill="#FFF" d="M-7.413-8.78l-16.51 124.144 67.99 27.665L66.77 86.113c6.082-22.648-27.86-37.382-43.17-36.752 0 0 22.155-39.628 1.577-46.794l-32.59-11.35z"/><path opacity=".1" d="M67.48 80.276C66.966 60.97 37.55 48.786 23.6 49.36c0 0 33.272 11.914 43.88 30.916z"/><path fill="none" stroke="#000" stroke-width="1.001" stroke-miterlimit="10" d="M-7.413-8.78l-16.51 124.144 67.99 27.665L66.77 86.113c6.082-22.648-27.86-37.382-43.17-36.752 0 0 22.155-39.628 1.577-46.794l-32.59-11.35z"/><path fill="none" stroke="#000" stroke-width="1.001" stroke-miterlimit="10" d="M23.6 49.36c11.382-.467 33.058 7.558 40.935 21.01l-32.3-61.783h-.002C38.935 21.93 23.6 49.36 23.6 49.36z"/><path opacity=".75" fill="none" stroke="#FFF" stroke-miterlimit="10" d="M10.65 64.454l9.793 18.733M20.09 59.52l9.795 18.732M12.107 55.74L28.43 86.967"/></svg>
