<?xml version="1.0" encoding="utf-8"?>
<!-- Generator: Adobe Illustrator 14.0.0, SVG Export Plug-In . SVG Version: 6.00 Build 43363)  -->
<!DOCTYPE svg PUBLIC "-//W3C//DTD SVG 1.1//EN" "http://www.w3.org/Graphics/SVG/1.1/DTD/svg11.dtd">
<svg version="1.1" id="Layer_1" xmlns="http://www.w3.org/2000/svg" xmlns:xlink="http://www.w3.org/1999/xlink" x="0px" y="0px"
	 width="800px" height="800px" viewBox="0 0 800 800" enable-background="new 0 0 800 800" xml:space="preserve">
<g>
	<path d="M428.134,193.899c33.721,0,62.446,5.416,86.176,16.236c23.729,10.831,41.839,26.442,54.328,46.834
		c12.489,20.402,18.733,45.176,18.733,74.311c0,29.145-6.244,53.918-18.733,74.311c-12.489,20.402-30.599,36.014-54.328,46.835
		c-23.729,10.83-52.455,16.235-86.176,16.235h-81.805v137.382H238.922V193.899H428.134z M411.273,388.107
		c22.48,0,39.438-4.684,50.894-14.051c11.445-9.367,17.173-23.622,17.173-42.775c0-19.144-5.728-33.409-17.173-42.776
		c-11.455-9.367-28.413-14.05-50.894-14.05h-64.944v113.652H411.273z"/>
</g>
<path d="M400,0C291.333,0,277.767,0.5,235.1,2.4c-42.6,2-71.6,8.7-97.1,18.6c-26.3,10.2-48.633,23.9-70.867,46.133
	S31.167,111.667,21,138c-9.9,25.5-16.633,54.5-18.6,97.1C0.4,277.767,0,291.333,0,400c0,108.667,0.5,122.233,2.4,164.9
	c2,42.566,8.7,71.6,18.6,97.1c10.2,26.267,23.9,48.634,46.133,70.866C89.367,755.066,111.667,768.833,138,779
	c25.533,9.866,54.533,16.634,97.1,18.6c42.667,2,56.233,2.4,164.9,2.4c108.667,0,122.233-0.5,164.9-2.4
	c42.566-2,71.6-8.733,97.1-18.6c26.267-10.2,48.633-23.934,70.866-46.134c22.2-22.233,35.967-44.5,46.134-70.866
	c9.866-25.5,16.634-54.533,18.6-97.1c2-42.667,2.4-56.233,2.4-164.9s-0.5-122.233-2.4-164.9c-2-42.567-8.732-71.633-18.6-97.1
	c-10.2-26.3-23.934-48.633-46.134-70.867C710.633,44.9,688.366,31.167,662,21c-25.5-9.9-54.533-16.633-97.1-18.6
	C522.233,0.4,508.667,0,400,0z M400,72c106.767,0,119.5,0.533,161.667,2.367c39,1.833,60.166,8.3,74.233,13.833
	c18.732,7.233,32,15.9,46.066,29.866c13.967,14,22.633,27.3,29.866,46.034c5.467,14.066,12,35.233,13.767,74.233
	c1.9,42.2,2.334,54.867,2.334,161.667s-0.5,119.5-2.467,161.667c-2.033,39-8.533,60.166-14.033,74.233
	c-7.467,18.732-15.967,32-29.967,46.066c-13.967,13.967-27.467,22.633-46,29.866c-14,5.467-35.5,12-74.5,13.767
	C518.5,727.5,506,727.934,399,727.934c-107.033,0-119.533-0.5-161.967-2.467C198,723.434,176.5,716.934,162.5,711.434
	c-18.967-7.467-32-15.967-45.967-29.967c-14.033-13.967-23-27.467-30-46c-5.5-14-11.966-35.5-14-74.5
	c-1.5-42-2.033-54.967-2.033-161.467c0-106.533,0.533-119.533,2.033-162.033c2.034-39,8.5-60.467,14-74.467
	c7-19,15.967-32,30-46.033C130.5,103,143.533,94,162.5,87.033C176.5,81.5,197.533,75,236.533,73c42.5-1.5,55-2,161.967-2L400,72z"/>
</svg>
