<?xml version="1.0" encoding="UTF-8" standalone="no"?>
<!-- Generator: Adobe Illustrator 19.0.0, SVG Export Plug-In . SVG Version: 6.00 Build 0)  -->

<svg
   xmlns:dc="http://purl.org/dc/elements/1.1/"
   xmlns:cc="http://creativecommons.org/ns#"
   xmlns:rdf="http://www.w3.org/1999/02/22-rdf-syntax-ns#"
   xmlns:svg="http://www.w3.org/2000/svg"
   xmlns="http://www.w3.org/2000/svg"
   xmlns:sodipodi="http://sodipodi.sourceforge.net/DTD/sodipodi-0.dtd"
   xmlns:inkscape="http://www.inkscape.org/namespaces/inkscape"
   version="1.1"
   id="Calque_1"
   x="0px"
   y="0px"
   viewBox="0 0 800 600"
   style="enable-background:new 0 0 800 600;"
   xml:space="preserve"
   sodipodi:docname="worker.svg"
   inkscape:version="0.92.5 (2060ec1f9f, 2020-04-08)"><metadata
   id="metadata52"><rdf:RDF><cc:Work
       rdf:about=""><dc:format>image/svg+xml</dc:format><dc:type
         rdf:resource="http://purl.org/dc/dcmitype/StillImage" /></cc:Work></rdf:RDF></metadata><defs
   id="defs50">
	
	
	
	
	
	
	
	
	
	
	
	
	
	
	
	
	
	
	
	
	
	
	
	
	
	
	
	
	
	
	
	
	
	
	
	
	
	
</defs><sodipodi:namedview
   pagecolor="#ffffff"
   bordercolor="#666666"
   borderopacity="1"
   objecttolerance="10"
   gridtolerance="10"
   guidetolerance="10"
   inkscape:pageopacity="0"
   inkscape:pageshadow="2"
   inkscape:window-width="1439"
   inkscape:window-height="875"
   id="namedview48"
   showgrid="false"
   inkscape:zoom="0.59"
   inkscape:cx="210.61214"
   inkscape:cy="326.83375"
   inkscape:window-x="0"
   inkscape:window-y="0"
   inkscape:window-maximized="0"
   inkscape:current-layer="Calque_1" />
<style
   type="text/css"
   id="style2">
	.st0{fill:none;stroke:#5D5C74;stroke-width:4;stroke-miterlimit:10;}
	.st1{fill:#4FC1EA;stroke:#5D5C74;stroke-width:3;stroke-miterlimit:10;}
	.st2{fill:#5C5C74;}
	.st3{fill:#344258;stroke:#5D5C74;stroke-width:4;stroke-miterlimit:10;}
	.st4{fill:#FBD7CE;}
	.st5{fill:#E4E6E9;}
	.st6{fill:#CDCFD2;}
	.st7{fill:#5D5C74;}
	.st8{fill:#FFFFFF;}
	.st9{fill:#DFE1E2;}
	.st10{fill:#EDEEEF;}
	.st11{fill:none;stroke:#5D5C74;stroke-width:3;stroke-miterlimit:10;}
	.st12{fill:none;stroke:#F39200;stroke-width:3;stroke-miterlimit:10;}
	.st13{fill:none;stroke:#4FC1EB;stroke-width:3;stroke-miterlimit:10;}
</style>
<line
   style="fill:none;stroke:#11111f;stroke-width:4;stroke-miterlimit:10;fill-opacity:1;stroke-opacity:1"
   y2="513.70001"
   x2="759.5"
   y1="513.70001"
   x1="50.299999"
   class="st0"
   id="XMLID_7309_" /><path
   style="fill:#e9ecef;stroke:#5d5c74;stroke-width:3;stroke-miterlimit:10;fill-opacity:1"
   inkscape:connector-curvature="0"
   d="m 626.4,232.3 c 23.9,74.6 -11.4,131.2 -103.2,131.2 -97,0 -125.1,-56.4 -102.2,-131.2 14.5,-47.2 9,-98.5 23.7,-122 20.8,-33.1 40.1,-46 78.4,-46 36.1,0 59.5,11.5 74.3,43.7 12.2,26.2 13.5,75.9 29,124.3 z"
   class="st1"
   id="XMLID_7308_" /><path
   style="fill:#11111f;fill-opacity:0.97237569"
   inkscape:connector-curvature="0"
   d="m 522.5,363.4 c -45.8,0 -78,-12.2 -95.9,-36.4 -17.1,-23.2 -19.7,-56.5 -7.5,-96.5 6.7,-22 9.1,-45 11.3,-65.4 2.5,-23.7 4.6,-44.1 12.6,-56.9 21.9,-34.9 42,-46.6 79.5,-46.6 38.6,0 61.1,13.3 75.5,44.5 6.2,13.5 9.6,32.8 13.4,55.2 3.7,21.4 7.9,45.6 15.5,69.3 12.1,37.8 9.3,70.5 -8.2,94.4 -18.3,25.1 -51.6,38.4 -96.2,38.4 z m 0,-299.3 c -36.5,0 -56,11.5 -77.4,45.4 -7.7,12.3 -9.8,32.4 -12.2,55.8 -2.1,20.5 -4.6,43.7 -11.4,65.9 -12,39.1 -9.5,71.7 7.1,94.2 17.3,23.5 48.9,35.3 93.8,35.3 43.8,0 76.3,-12.9 94.2,-37.4 17,-23.2 19.7,-55.1 7.8,-92.1 -7.7,-23.9 -11.9,-48.2 -15.6,-69.6 -3.9,-22.2 -7.2,-41.3 -13.2,-54.5 -13.8,-30.1 -35.7,-43 -73.1,-43 z"
   class="st2"
   id="XMLID_7305_" /><path
   style="fill:#111111;stroke:#111111;stroke-width:4;stroke-miterlimit:10;fill-opacity:1;stroke-opacity:1"
   inkscape:connector-curvature="0"
   d="m 392,406.9 c 0,-54.9 59.2,-99.5 132.2,-99.5 73,0 132.2,44.5 132.2,99.5"
   class="st3"
   id="XMLID_7304_" /><path
   style="fill:#ffffff;fill-opacity:1"
   inkscape:connector-curvature="0"
   d="m 553.8,156 c -28.4,0 -52.9,-11.6 -64.6,-28.4 -4.7,18.9 -18,33 -34,35 0,17.7 0,45.8 0,61.2 0,23.6 14.8,53 37.9,67.8 v 23.6 c 0,13.2 8.3,31.7 30.2,31.7 21.3,0 30.6,-18.5 30.6,-31.7 v -22 c 24.7,-14.2 38,-45 38,-69.5 0,-23.6 0,-77.2 0,-77.2 0,-0.2 0,-0.3 0,-0.5 -4.1,8 -14,10 -38.1,10 z"
   class="st4"
   id="XMLID_7303_" /><path
   style="fill:#11111f;fill-opacity:1"
   inkscape:connector-curvature="0"
   d="m 523.1,347.5 c -23.1,0 -31.4,-19.7 -31.4,-33 v -23 c -22,-14.4 -37.9,-43.1 -37.9,-68.5 v -61.2 c 0,-0.6 0.5,-1.2 1.1,-1.3 15.3,-1.9 28.2,-15.2 32.9,-34 0.1,-0.5 0.5,-0.9 1,-1 0.5,-0.1 1,0.1 1.3,0.5 12,17.1 36.3,27.8 63.5,27.8 24.7,0 33.3,-2.1 36.9,-9.1 0.3,-0.5 0.9,-0.8 1.4,-0.7 0.6,0.1 1,0.6 1,1.2 v 0.5 77.2 c 0,23.1 -11.9,54.8 -38,70.2 v 21.2 c 0.1,13.9 -9.8,33.2 -31.8,33.2 z M 456.3,162.9 V 223 c 0,24.8 15.7,52.9 37.3,66.7 0.4,0.2 0.6,0.6 0.6,1.1 v 23.6 c 0,12.2 7.7,30.4 28.9,30.4 20.2,0 29.3,-17.8 29.3,-30.4 v -22 c 0,-0.5 0.2,-0.9 0.6,-1.1 24.5,-14.1 37.3,-45.1 37.3,-68.4 v -73.7 c -5.8,6 -17.2,7.1 -36.8,7.1 -26.9,0 -51.1,-10.2 -64.1,-26.7 -5.2,18.1 -17.9,30.9 -33.1,33.3 z"
   class="st2"
   id="XMLID_7300_" /><g
   id="XMLID_7298_"
   style="fill:#11111f;fill-opacity:1">
		<path
   style="fill:#11111f;fill-opacity:1"
   inkscape:connector-curvature="0"
   d="m 537.5,248.2 c 0,0 -5.9,6.8 -13.2,6.8 -7.3,0 -13.2,-6.8 -13.2,-6.8 0,0 5.9,0.8 13.2,0.8 7.3,0 13.2,-0.8 13.2,-0.8 z"
   class="st2"
   id="XMLID_7299_" />
	</g><g
   id="XMLID_7296_"
   style="fill:#11111f;fill-opacity:0.95027626">
		<path
   style="fill:#11111f;fill-opacity:0.95027626"
   inkscape:connector-curvature="0"
   d="m 525,229.8 c -0.1,0 -0.2,0 -0.3,0 -2.1,-0.1 -3.9,-0.9 -4.9,-2.3 -0.8,-1.1 -1,-2.5 -0.6,-3.9 l 1.2,0.4 c -0.3,1 -0.2,1.9 0.4,2.7 0.8,1.1 2.2,1.8 3.9,1.8 2,0 3.8,-0.7 4.7,-1.9 0.6,-0.8 0.6,-1.8 0.2,-2.9 l 1.2,-0.5 c 0.8,1.9 0.3,3.3 -0.3,4.1 -1,1.5 -3.2,2.5 -5.5,2.5 z"
   class="st2"
   id="XMLID_7297_" />
	</g><path
   style="fill:#e9ecef;fill-opacity:1;stroke:none;stroke-opacity:0.70588237"
   inkscape:connector-curvature="0"
   d="m 670.3,378.6 v 156.6 c 0,8.1 -6.6,14.7 -14.7,14.7 H 390.2 c -8.1,0 -14.7,-6.6 -14.7,-14.7 V 378.4 c 0,-8.1 6.6,-14.7 14.7,-14.7 h 265.4 c 8.1,0.2 14.7,6.8 14.7,14.9"
   class="st5"
   id="XMLID_7295_" /><path
   style="fill:#11111f;fill-opacity:0.25490198"
   inkscape:connector-curvature="0"
   d="m 670.3,518.1 v 17.2 c 0,8.1 -6.6,14.7 -14.7,14.7 H 390.2 c -8.1,0 -14.7,-6.6 -14.7,-14.7 V 518 Z"
   class="st6"
   id="XMLID_7294_" /><path
   style="fill:#11111f;fill-opacity:0.98895025"
   inkscape:connector-curvature="0"
   d="m 375.5,460 c -1.7,0 -3.1,-1.4 -3.1,-3.1 v -31 c 0,-1.7 1.6,-2.9 3.1,-2.9 1.6,0 2.9,1.4 2.9,2.9 v 31 c 0.2,1.7 -1.2,3.1 -2.9,3.1"
   class="st7"
   id="XMLID_7293_" /><path
   style="fill:#11111f;fill-opacity:1"
   inkscape:connector-curvature="0"
   d="M 655.6,553.2 H 390.2 c -9.9,0 -17.8,-8 -17.8,-17.8 V 476 c 0,-1.7 1.6,-2.9 3.1,-2.9 1.6,0 2.9,1.4 2.9,2.9 v 59.4 c 0,6.4 5.2,11.8 11.6,11.8 h 265.6 c 6.4,0 11.6,-5.2 11.6,-11.8 V 378.6 c 0,-6.4 -5.2,-11.8 -11.6,-11.8 H 390.2 c -6.4,0 -11.6,5.2 -11.6,11.8 v 30.8 c 0,1.7 -1.4,3.1 -3.1,3.1 -1.7,0 -3.1,-1.4 -3.1,-3.1 v -30.8 c 0,-9.9 8,-17.8 17.8,-17.8 h 265.4 c 9.9,0 17.8,8 17.8,17.8 v 156.6 c 0,9.9 -7.9,18 -17.8,18"
   class="st7"
   id="XMLID_7292_" /><path
   style="fill:#ffffff"
   inkscape:connector-curvature="0"
   d="m 650.2,428.5 c -1.4,0 -2.4,-1 -2.4,-2.4 v -28.2 c 0,-6.8 -5.5,-12.3 -12.3,-12.3 h -31.7 c -1.4,0 -2.4,-1 -2.4,-2.4 0,-1.4 1,-2.4 2.4,-2.4 h 31.7 c 9.5,0 17.2,7.8 17.2,17.2 v 28.2 c 0.1,1.1 -1.1,2.3 -2.5,2.3 m -63.9,-43 h -22.2 c -1.4,0 -2.4,-1 -2.4,-2.4 0,-1.4 1,-2.4 2.4,-2.4 h 22.2 c 1.4,0 2.4,1 2.4,2.4 0,1.2 -1,2.4 -2.4,2.4 m -54.9,83.9 c 11.6,13.9 2.8,20.1 -8.3,20.1 -11.1,0 -20.1,-9 -20.1,-20.1 0,-11.1 9,-20.1 20.1,-20.1 11.1,0 16.3,10 8.3,20.1"
   class="st8"
   id="XMLID_7288_" /><path
   style="fill:#11111f;fill-opacity:0.98895025"
   inkscape:connector-curvature="0"
   d="m 522.9,452.2 c -9.4,0 -17,7.6 -17,17 0,9.4 7.6,17 17,17 5.2,0 9.4,-1.6 10.4,-4 1.2,-2.4 -0.3,-6.4 -4.3,-11.1 -0.9,-1 -1,-2.8 0,-4 3.1,-3.8 4,-7.8 2.4,-10.7 -1.2,-2.4 -4.5,-4.2 -8.5,-4.2 m 0,40.4 c -12.8,0 -23.2,-10.4 -23.2,-23.2 0,-12.8 10.4,-23.2 23.2,-23.2 6.4,0 11.6,2.9 14,7.8 2.3,4.5 1.6,10 -1.7,15.2 4.5,6.1 5.9,11.4 3.8,15.8 -2.2,4.8 -8.3,7.6 -16.1,7.6"
   class="st7"
   id="XMLID_7285_" /><path
   style="fill:#11111f;fill-opacity:1"
   inkscape:connector-curvature="0"
   d="m 519.8,440.3 c -1.7,0 -3.1,-1.4 -3.1,-3.1 0,-0.3 0,-0.5 0.2,-0.9 0.2,-0.3 2.8,-9.7 10.6,-12 1.6,-0.5 3.3,0.5 3.8,2.3 0.3,1.6 -0.5,3.3 -2.1,3.6 -4.3,1.4 -6.4,7.6 -6.4,7.8 -0.4,1.4 -1.6,2.3 -3,2.3"
   class="st7"
   id="XMLID_7284_" /><path
   style="fill:#11111f;fill-opacity:0.99447512"
   inkscape:connector-curvature="0"
   d="m 225,524.6 h 43 v -64.1 h -43 z"
   class="st9"
   id="XMLID_7283_" /><path
   style="fill:#11111f;fill-opacity:1"
   inkscape:connector-curvature="0"
   d="M 228.1,521.5 H 265 v -57.9 h -36.9 z m 40,6.2 h -43 c -1.7,0 -3.1,-1.4 -3.1,-3.1 v -64.1 c 0,-1.7 1.4,-3.1 3.1,-3.1 h 43 c 1.7,0 3.1,1.4 3.1,3.1 v 64.1 c -0.2,1.7 -1.4,3.1 -3.1,3.1 z"
   class="st7"
   id="XMLID_7280_" /><path
   style="fill:#11111f;fill-opacity:1"
   inkscape:connector-curvature="0"
   d="m 268.1,516.1 c -1.7,0 -3.1,-1.4 -3.1,-3.1 0,-1.7 1.4,-3.1 3.1,-3.1 9.5,0 17.3,-7.8 17.3,-17.3 0,-9.5 -7.8,-17.3 -17.3,-17.3 -1.7,0 -3.1,-1.4 -3.1,-3.1 0,-1.7 1.4,-3.1 3.1,-3.1 13,0 23.4,10.6 23.4,23.6 0,12.9 -10.6,23.4 -23.4,23.4 m -21.5,-63.6 c -0.5,0 -1,-0.2 -1.4,-0.7 -0.5,-0.7 -5.5,-7.6 -4.5,-12.3 0.5,-2.1 1.7,-3.6 3.1,-5.2 1.6,-1.9 3.1,-3.6 3.3,-6.6 0.2,-1 1,-1.7 2.1,-1.7 1,0.2 1.7,1 1.7,2.1 -0.3,4.2 -2.4,6.6 -4.2,8.7 -1,1.2 -2.1,2.4 -2.3,3.6 -0.5,2.4 2.4,7.3 3.8,9.2 0.7,0.9 0.5,1.9 -0.3,2.6 -0.6,0.2 -0.9,0.3 -1.3,0.3 M 236,451.2 c -0.2,0 -0.3,0 -0.5,-0.2 -0.3,-0.3 -3.8,-2.6 -4.2,-5 -0.2,-1 0.2,-2.1 0.7,-2.9 0.5,-1.2 0.9,-2.3 0.5,-3.6 -0.2,-0.5 0.2,-1 0.7,-1 0.5,-0.2 1,0.2 1,0.7 0.5,2.1 -0.2,3.5 -0.5,4.7 -0.3,0.7 -0.5,1.4 -0.5,2.1 0.2,1 2.1,2.8 3.3,3.8 0.3,0.3 0.5,0.9 0.2,1.2 -0.1,0 -0.3,0.2 -0.7,0.2 m 21.2,0.3 c -0.3,0 -0.7,-0.2 -0.9,-0.7 -0.2,-0.5 -1.6,-4.5 -0.3,-6.6 0.5,-0.9 1.4,-1.6 2.3,-2.1 1,-0.7 1.9,-1.2 2.6,-2.6 0.2,-0.5 0.7,-0.7 1.2,-0.3 0.3,0.2 0.7,0.7 0.5,1.2 -0.9,1.9 -2.3,2.8 -3.3,3.5 -0.7,0.5 -1.4,0.9 -1.6,1.4 -0.5,1 0,3.5 0.5,5 0.2,0.5 0,1 -0.5,1.2 h -0.5"
   class="st7"
   id="XMLID_7275_" /><path
   style="fill:#ffffff"
   inkscape:connector-curvature="0"
   d="m 239.4,511.3 c -1.5,0 -2.7,-1.1 -2.7,-2.7 v -20 c 0,-1.5 1.1,-2.7 2.7,-2.7 1.5,0 2.7,1.1 2.7,2.7 v 20 c 0,1.6 -1.2,2.7 -2.7,2.7 0,0.2 0,0.2 0,0 m 0,22.8 c -1.5,0 -2.7,-1.1 -2.7,-2.7 v -10.1 c 0,-1.5 1.1,-2.7 2.7,-2.7 1.5,0 2.7,1.1 2.7,2.7 v 10.1 c 0,1.4 -1.2,2.7 -2.7,2.7"
   class="st8"
   id="XMLID_7271_" /><path
   style="fill:#11111f;fill-opacity:0.25414366"
   inkscape:connector-curvature="0"
   d="M 229.1,268.6 179,318.8 c 0,0 -11.6,-10.7 -13.3,-19.9 0,0 -8.3,-21.2 10.6,-37.9 0,0 11,-13 34.1,-7.4 0,0 12.6,4.2 18.7,15 z"
   class="st6"
   id="XMLID_7270_" /><path
   style="fill:#11111f;stroke:none;stroke-opacity:1;fill-opacity:0.98895025"
   inkscape:connector-curvature="0"
   d="m 109.9,233.2 c 0.1,-0.5 0.5,-0.8 0.9,-1 0.4,-0.2 0.9,-0.2 1.4,0 l 59.9,26.3 c 0.2,0.1 0.4,0.2 0.6,0.4 15.5,-14.2 39.6,-13.9 54.6,1.1 2.3,2.3 4.3,4.9 5.9,7.6 v 0 c 0.7,0.8 0.7,2 -0.1,2.7 l -4.2,4.2 h -5.7 l 5.8,-5.8 c -1.3,-2 -2.9,-4 -4.6,-5.8 -13.8,-13.8 -36.3,-13.8 -50.2,0 -9.7,9.7 -12.6,23.8 -8.6,36.1 0,0 0,0 0,0 0.2,0.7 0.1,1.4 -0.5,1.9 -0.8,0.8 -2,0.8 -2.8,0 -0.1,-0.1 -0.2,-0.3 -0.3,-0.4 0,0 -0.1,0 -0.1,-0.1 0,0 0,-0.1 0,-0.1 0,-0.1 -0.1,-0.2 -0.1,-0.3 -4.2,-13.1 -1.4,-27.9 8.3,-38.6 l -57.6,-25.3 -23.3,74.2 h -3.6 z"
   class="st7"
   id="XMLID_7269_" /><path
   style="fill:#11111f;fill-opacity:1"
   inkscape:connector-curvature="0"
   d="m 112.8,532.3 c -0.5,0 -1,-0.2 -1.3,-0.6 L 72.1,483.3 h 4.4 l 37.1,45.6 h 64.2 c 0.9,0 1.7,0.8 1.7,1.7 v 9 c 0,0.9 -0.8,1.7 -1.7,1.7 l -137.5,1.4 c 0,0 0,0 0,0 -0.9,0 -1.7,-0.8 -1.7,-1.7 0,-0.9 0.7,-1.7 1.7,-1.7 l 135.8,-1.4 v -5.6 z"
   class="st7"
   id="XMLID_7265_" /><path
   style="fill:#11111f;fill-opacity:0.93922651"
   inkscape:connector-curvature="0"
   d="m 181.8,321.6 c -0.8,0.8 -2.1,0.8 -2.8,0 -0.8,-0.8 -0.8,-2.1 0,-2.8 l 10.3,-10.3 v 5.7 z"
   class="st7"
   id="XMLID_7263_" /><path
   style="fill:#11111f;fill-opacity:0.09944751"
   inkscape:connector-curvature="0"
   d="m 220.4,308.9 c -7.4,7.4 -19.1,7.7 -27,1.1 l 28,-28 c 6.7,7.8 6.4,19.5 -1,26.9 z"
   class="st10"
   id="XMLID_7262_" /><path
   style="fill:#11111f;fill-opacity:1"
   inkscape:connector-curvature="0"
   d="m 228.8,274.5 h -5.7 l -34,34 v 5.7 l 1.3,-1.3 c 9.4,8.2 23.7,7.9 32.6,-1.1 8.9,-8.9 9.3,-23.2 1.1,-32.6 z m -7.4,7.5 c 6.6,7.8 6.3,19.6 -1.1,27 -7.4,7.4 -19.1,7.7 -27,1.1 z"
   class="st7"
   id="XMLID_7256_" /><path
   style="fill:#11111f;fill-opacity:0.09803922"
   inkscape:connector-curvature="0"
   d="M 50.2,473.7 C 39,473.7 30,464.6 30,453.5 c 0,-11.2 9.1,-20.2 20.2,-20.2 11.2,0 20.2,9.1 20.2,20.2 0,11.2 -9.1,20.2 -20.2,20.2 z"
   class="st5"
   id="XMLID_7255_" /><path
   style="fill:#11111f;stroke:none;stroke-opacity:1;fill-opacity:1"
   inkscape:connector-curvature="0"
   d="m 72.2,483.3 h 4.4 L 66.4,470.7 c 4.6,-4.3 7.5,-10.4 7.5,-17.2 0,-10.1 -6.4,-18.7 -15.3,-22.1 l 2.8,-8.9 h -3.6 l -2.5,7.9 c -1.6,-0.4 -3.4,-0.6 -5.1,-0.6 -13,0 -23.6,10.6 -23.6,23.6 0,13 10.6,23.6 23.6,23.6 5,0 9.7,-1.6 13.5,-4.3 z m -22,-9.6 C 39,473.7 30,464.6 30,453.5 c 0,-11.2 9.1,-20.2 20.2,-20.2 11.2,0 20.2,9.1 20.2,20.2 0,11.2 -9.1,20.2 -20.2,20.2 z"
   class="st7"
   id="XMLID_7251_" /><rect
   style="fill:#11111f;fill-opacity:0.25490198"
   height="7"
   width="135.8"
   class="st6"
   y="532.29999"
   x="40.299999"
   id="XMLID_7247_" /><line
   style="fill:none;stroke:#11111f;stroke-width:3;stroke-miterlimit:10;stroke-opacity:1"
   y2="307.79999"
   x2="88.199997"
   y1="432.29999"
   x1="56.400002"
   class="st11"
   id="XMLID_7245_" /><g
   id="XMLID_7240_"
   style="stroke:none;stroke-opacity:1;fill:#11111f;fill-opacity:1">
		<path
   style="fill:#11111f;stroke:none;stroke-opacity:1;fill-opacity:1"
   inkscape:connector-curvature="0"
   d="m 475.8,189.7 c -0.6,0 -1.3,-0.2 -1.8,-0.7 -1.1,-1 -1.1,-2.6 -0.1,-3.7 3.3,-3.5 7.9,-5.3 12.3,-4.9 3.7,0.3 6.8,2.2 8.7,5.1 0.8,1.2 0.4,2.8 -0.8,3.6 -1.2,0.8 -2.8,0.4 -3.6,-0.8 -1,-1.6 -2.7,-2.5 -4.7,-2.7 -2.8,-0.3 -5.8,1 -8,3.3 -0.6,0.5 -1.3,0.8 -2,0.8 z"
   class="st2"
   id="XMLID_7243_" />
	</g><g
   id="XMLID_7234_"
   style="stroke:none;stroke-opacity:1;fill:#11111f;fill-opacity:0.96132594">
		<path
   style="fill:#11111f;stroke:none;stroke-opacity:1;fill-opacity:0.96132594"
   inkscape:connector-curvature="0"
   d="m 574.4,189.7 c -0.7,0 -1.4,-0.3 -1.9,-0.8 -2.2,-2.3 -5.4,-3.6 -8.6,-3.4 -2.6,0.1 -4.8,1.2 -6.2,3 -0.9,1.2 -2.5,1.4 -3.7,0.5 -1.1,-0.9 -1.4,-2.5 -0.5,-3.7 2.3,-3 5.9,-4.8 10,-5.1 4.8,-0.3 9.4,1.6 12.7,5 1,1 1,2.7 -0.1,3.7 -0.4,0.5 -1,0.8 -1.7,0.8 z"
   class="st2"
   id="XMLID_7235_" />
	</g><path
   style="fill:none;stroke:#e9ecef;stroke-width:3;stroke-miterlimit:10;stroke-opacity:1"
   inkscape:connector-curvature="0"
   d="m 593.6,24.1 c -1.3,1.1 -3,1.8 -4.9,1.8 -4.1,0 -7.4,-3.3 -7.4,-7.4 0,-4.1 3.3,-7.4 7.4,-7.4 4.1,0 7.4,3.3 7.4,7.4 0,1.3 -0.3,2.5 -0.9,3.5"
   class="st12"
   id="XMLID_7233_" /><path
   style="fill:none;stroke:#11111f;stroke-width:3;stroke-miterlimit:10;stroke-opacity:0.25490198"
   inkscape:connector-curvature="0"
   d="m 927.6,36 c -1.2,1 -2.8,1.7 -4.5,1.7 -3.8,0 -6.9,-3.1 -6.9,-6.9 0,-3.8 3.1,-6.9 6.9,-6.9 3.8,0 6.9,3.1 6.9,6.9 0,1.2 -0.3,2.3 -0.8,3.2"
   class="st13"
   id="XMLID_7231_" /><path
   style="fill:none;stroke:#11111f;stroke-width:3;stroke-miterlimit:10;stroke-opacity:0.25490198"
   inkscape:connector-curvature="0"
   d="m 723.9,-25.7 c -2.8,2.4 -6.5,3.9 -10.5,3.9 -8.9,0 -16.1,-7.2 -16.1,-16.1 0,-8.9 7.2,-16.1 16.1,-16.1 8.9,0 16.1,7.2 16.1,16.1 0,2.7 -0.7,5.3 -1.9,7.6"
   class="st13"
   id="XMLID_7227_" /><path
   style="fill:none;stroke:#11111f;stroke-width:3;stroke-miterlimit:10;stroke-opacity:0.25490198"
   inkscape:connector-curvature="0"
   d="m 738.4,128.4 c -0.9,0.8 -2.2,1.3 -3.5,1.3 -3,0 -5.4,-2.4 -5.4,-5.4 0,-3 2.4,-5.4 5.4,-5.4 3,0 5.4,2.4 5.4,5.4 0,0.9 -0.2,1.8 -0.6,2.5"
   class="st13"
   id="XMLID_7226_" /><path
   style="fill:none;stroke:#e9ecef;stroke-width:3;stroke-miterlimit:10;stroke-opacity:1"
   inkscape:connector-curvature="0"
   d="m 776.6,72.4 c -1.9,1.6 -4.3,2.6 -7,2.6 -5.9,0 -10.7,-4.8 -10.7,-10.7 0,-5.9 4.8,-10.7 10.7,-10.7 5.9,0 10.7,4.8 10.7,10.7 0,1.8 -0.5,3.5 -1.3,5"
   class="st12"
   id="XMLID_7222_" /><path
   style="fill:none;stroke:#11111f;stroke-width:3;stroke-miterlimit:10;stroke-opacity:0.25490198"
   inkscape:connector-curvature="0"
   d="m 422.9,-49.9 c -0.9,0.8 -2.2,1.3 -3.5,1.3 -3,0 -5.4,-2.4 -5.4,-5.4 0,-3 2.4,-5.4 5.4,-5.4 3,0 5.4,2.4 5.4,5.4 0,0.9 -0.2,1.8 -0.6,2.5"
   class="st12"
   id="XMLID_7218_" /><path
   style="fill:none;stroke:#e9ecef;stroke-width:3;stroke-miterlimit:10;stroke-opacity:1"
   inkscape:connector-curvature="0"
   d="m 893.7,176.5 c -0.9,0.8 -2.2,1.3 -3.5,1.3 -3,0 -5.4,-2.4 -5.4,-5.4 0,-3 2.4,-5.4 5.4,-5.4 3,0 5.4,2.4 5.4,5.4 0,0.9 -0.2,1.8 -0.6,2.5"
   class="st12"
   id="XMLID_7196_" />
</svg>